<svg t="1672484511647" class="icon" viewBox="0 0 1024 1024" version="1.1" xmlns="http://www.w3.org/2000/svg" p-id="2371" width="200" height="200"><path d="M511.661286 625.479541l-189.014888-189.012841c-3.679809-3.681856-8.773827-5.969968-14.406105-5.969968-11.262508 0-20.376073 9.131985-20.376073 20.376073 0 5.622044 2.267647 10.716063 5.969968 14.426571l203.759707 203.738217c3.700275 3.692089 8.773827 5.969968 14.406105 5.969968 5.811356 0 10.963703-2.467191 14.684444-6.377244l0.059352 0.079818 340.244194-356.449271c0 0.038886 0.059352 0.079818 0.079818 0.11768l29.090549-30.523177c-0.020466-0.020466-0.038886-0.061398-0.059352-0.100284l58.540278-61.337997-0.059352-0.059352c3.482311-3.640923 5.691629-8.555863 5.691629-13.997805 0-11.243065-9.114588-20.376073-20.376073-20.376073-5.811356 0-10.985192 2.487657-14.685467 6.357801l-0.040932-0.059352-52.371788 54.868655c-0.038886-0.059352-0.079818-0.11768-0.118704-0.158612l-28.41619 29.78742c0.040932 0.061398 0.061398 0.119727 0.100284 0.168846L511.661286 625.479541zM924.254252 340.187913c-7.999185-7.881504-20.931728-7.78122-28.811186 0.248663-5.611811 5.709025-6.985088 13.839193-4.53734 20.941961l-0.437975 0.148379c18.546402 46.602388 29.052686 97.255021 29.052686 150.473083 0 225.071082-182.428889 407.519414-407.519414 407.519414-225.050616 0-407.519414-182.448332-407.519414-407.519414S286.949384 104.480586 512 104.480586c115.191532 0 219.041762 47.924499 293.104571 124.802424l0.258896-0.258896c8.058536 7.233752 20.394493 7.063883 28.076452-0.735757 7.879458-8.029884 7.779174-20.924565-0.23843-28.813233-0.756223-0.756223-1.7519-1.083681-2.587941-1.691525C749.446947 115.244744 636.941594 63.72844 512 63.72844c-247.576655 0-448.27156 200.684672-448.27156 448.27156 0 247.566422 200.694905 448.27156 448.27156 448.27156 247.575632 0 448.27156-200.705138 448.27156-448.27156 0-57.625442-11.262508-112.537076-31.081902-163.146731C928.233889 345.717859 926.763398 342.673523 924.254252 340.187913" fill="#00b8d4" p-id="2372"></path></svg>